<svg width="380" height="105" viewBox="0 0 380 105" fill="none" xmlns="http://www.w3.org/2000/svg">
<path d="M154.475 35.9202C164.2 35.9202 172.084 43.7189 172.084 53.3377C172.084 62.9565 164.2 70.7553 154.475 70.7553C144.751 70.7553 136.866 62.9565 136.866 53.3377C136.866 43.7189 144.751 35.9202 154.475 35.9202ZM154.475 42.2158C148.266 42.2158 143.231 47.1957 143.231 53.3377C143.231 59.4797 148.266 64.4596 154.475 64.4596C160.685 64.4596 165.72 59.4797 165.72 53.3377C165.72 47.1909 160.685 42.2158 154.475 42.2158Z" fill="#FAA51A"/>
<path d="M177.454 67.7443L177.449 49.059C177.449 41.8028 183.397 35.9202 190.733 35.9202C198.068 35.9202 204.016 41.8028 204.016 49.059V67.7443C204.016 71.9414 197.651 71.9414 197.651 67.7443V49.059C197.651 45.2796 194.553 42.2158 190.733 42.2158C186.912 42.2158 183.814 45.2796 183.814 49.059L183.819 67.7443C183.819 71.9414 177.454 71.9414 177.454 67.7443Z" fill="#FAA51A"/>
<path d="M228.941 70.8947H228.407C218.605 70.8947 210.667 63.0383 210.667 53.3427C210.667 43.6566 218.595 35.7618 228.407 35.7618H229.048C233.291 35.7618 233.291 42.0575 229.048 42.0575H228.407C223.256 42.0575 218.896 45.4671 217.503 50.1348H229.626C233.869 50.1348 233.869 56.4305 229.626 56.4305H217.469C218.823 61.1462 223.207 64.599 228.412 64.599H228.946C233.184 64.599 233.184 70.8947 228.941 70.8947Z" fill="#FAA51A"/>
<path d="M330.304 67.682L330.299 49.3233C330.299 42.1056 336.208 36.0932 343.582 36.0932H344.772C349.015 36.0932 349.015 42.3889 344.772 42.3889H343.582C339.8 42.3889 336.664 45.5055 336.664 49.3233L336.669 67.682C336.674 71.8744 330.309 71.8792 330.304 67.682ZM369.333 58.4906V67.6772C369.333 71.8744 362.968 71.8744 362.968 67.6772V58.4906C357.166 57.0788 352.865 51.902 352.865 45.7312V39.2435C352.865 35.0463 359.23 35.0463 359.23 39.2435V45.7312C359.23 49.5105 362.327 52.5743 366.148 52.5743C369.969 52.5743 373.067 49.5105 373.067 45.7312C373.067 43.9064 373.062 39.2435 373.062 39.2435C373.057 35.0463 379.422 35.0415 379.427 39.2387C379.427 39.2387 379.431 43.9064 379.431 45.7312C379.431 51.902 375.13 57.0836 369.333 58.4906ZM312.462 35.7907H319.055C323.298 35.7907 323.298 42.0864 319.055 42.0864H312.462V57.6983C312.462 61.5064 315.579 64.6038 319.375 64.6038H321.196C325.439 64.6038 325.439 70.8995 321.196 70.8995H319.375C312.01 70.8995 306.097 64.9304 306.097 57.7031V31.6032C306.097 27.406 312.462 27.406 312.462 31.6032V35.7907ZM272.583 67.7445L272.578 49.0591C272.578 41.803 278.526 35.9203 285.861 35.9203C293.197 35.9203 299.145 41.803 299.145 49.0591V67.7445C299.145 71.9416 292.78 71.9416 292.78 67.7445V49.0591C292.78 45.2798 289.682 42.216 285.861 42.216C282.041 42.216 278.943 45.2798 278.943 49.0591L278.948 67.7445C278.948 71.9416 272.583 71.9416 272.583 67.7445ZM259.941 70.8947H259.407C249.604 70.8947 241.671 63.0383 241.671 53.3427C241.671 43.6567 249.6 35.7619 259.407 35.7619H260.047C264.291 35.7619 264.291 42.0575 260.047 42.0575H259.407C254.255 42.0575 249.896 45.4671 248.502 50.1348H260.625C264.868 50.1348 264.868 56.4305 260.625 56.4305H248.468C249.823 61.1463 254.207 64.599 259.411 64.599H259.946C264.184 64.599 264.184 70.8947 259.941 70.8947Z" fill="#F15B22"/>
<path d="M65.2022 1.3783C41.7235 6.79997 24.2407 27.6319 24.2407 52.5025C24.2407 77.373 41.7235 98.2049 65.1973 103.627C88.6712 98.2049 106.154 77.373 106.154 52.5025C106.159 27.6319 88.676 6.79997 65.2022 1.3783ZM72.004 74.0259C69.9018 75.8363 67.6102 77.2866 65.2022 78.3911C65.2022 78.3911 65.2022 78.4055 65.2022 78.3911C55.3272 73.8626 48.4816 63.9701 48.4816 52.4977C48.4816 41.0252 55.3272 31.1327 65.2022 26.6042C68.79 28.2418 72.0914 30.6429 74.849 33.7835C85.2969 45.6737 84.0249 63.6916 72.004 74.0259Z" fill="#F15B22"/>
<path d="M53.0795 0C57.2499 0 61.3087 0.475417 65.1975 1.37343C41.7237 6.79991 24.2409 27.6318 24.2409 52.5024C24.2409 77.373 41.7237 98.2049 65.1975 103.627C61.3038 104.525 57.245 105 53.0795 105C23.7651 105 0 81.4981 0 52.5024C0.00485498 23.5067 23.7651 0 53.0795 0Z" fill="url(#paint0_linear_1_532)"/>
<path d="M34.1647 30.9744C43.0105 23.3677 55.211 22.0423 65.2026 26.6092C55.3275 31.1377 48.482 41.0302 48.482 52.5026C48.482 63.9751 55.3275 73.8676 65.2026 78.3961C53.8468 83.6016 39.9421 81.0277 31.3197 71.2168C20.8717 59.3265 22.1438 41.3087 34.1647 30.9744Z" fill="url(#paint1_linear_1_532)"/>
<path d="M99.0854 33.7881C109.533 45.6783 108.261 63.6914 96.2404 74.0305C87.3946 81.6372 75.1941 82.9626 65.2025 78.3957C67.6106 77.2912 69.9021 75.8409 72.0043 74.0305C84.0253 63.6962 85.2973 45.6783 74.8494 33.7881C72.0917 30.6475 68.7903 28.2512 65.2025 26.6088C76.5535 21.4032 90.463 23.9772 99.0854 33.7881Z" fill="url(#paint2_linear_1_532)"/>
<path d="M25.6342 40.5164L79.2672 40.5212C82.8453 48.1567 82.7871 56.9543 79.2672 64.4841L25.6342 64.4889C24.7264 60.6376 24.2457 56.6277 24.2457 52.5026C24.2457 48.3776 24.7215 44.3629 25.6342 40.5164Z" fill="#F15B22"/>
<path fill-rule="evenodd" clip-rule="evenodd" d="M254.576 89.9451V104.678H252.367V98.0416H244.594V104.678H242.375V89.9451H244.594V96.4521H252.367V89.9451H254.576Z" fill="white"/>
<path fill-rule="evenodd" clip-rule="evenodd" d="M265.077 98.3058C265.077 97.9072 265.019 97.5422 264.907 97.2061C264.791 96.8699 264.625 96.5818 264.402 96.3321C264.179 96.0872 263.912 95.8951 263.591 95.7558C263.271 95.6213 262.907 95.5493 262.494 95.5493C261.645 95.5493 260.975 95.7942 260.484 96.2792C259.999 96.7643 259.688 97.4366 259.557 98.301H265.077V98.3058ZM266.747 103.194C266.499 103.483 266.213 103.727 265.888 103.939C265.562 104.145 265.218 104.318 264.849 104.448C264.485 104.577 264.101 104.673 263.713 104.736C263.319 104.798 262.936 104.827 262.557 104.827C261.829 104.827 261.159 104.707 260.538 104.462C259.921 104.217 259.382 103.862 258.931 103.396C258.479 102.925 258.125 102.344 257.872 101.653C257.62 100.957 257.494 100.159 257.494 99.2566C257.494 98.5315 257.61 97.8544 257.838 97.2301C258.066 96.6058 258.392 96.0583 258.819 95.5925C259.246 95.1267 259.766 94.7617 260.382 94.4928C260.999 94.2239 261.688 94.0942 262.455 94.0942C263.101 94.0942 263.693 94.1999 264.237 94.4064C264.781 94.6129 265.247 94.9202 265.645 95.314C266.038 95.7126 266.349 96.2024 266.572 96.7835C266.796 97.3645 266.912 98.0272 266.912 98.7764C266.912 99.0837 266.878 99.2902 266.81 99.3959C266.742 99.5015 266.611 99.5543 266.427 99.5543H259.518C259.537 100.179 259.63 100.721 259.785 101.182C259.945 101.643 260.164 102.027 260.445 102.335C260.727 102.642 261.057 102.873 261.445 103.022C261.834 103.17 262.266 103.247 262.742 103.247C263.193 103.247 263.582 103.194 263.907 103.094C264.237 102.993 264.519 102.877 264.757 102.762C264.994 102.642 265.198 102.532 265.359 102.431C265.519 102.33 265.664 102.277 265.791 102.277C265.956 102.277 266.087 102.34 266.174 102.46L266.747 103.194Z" fill="white"/>
<path fill-rule="evenodd" clip-rule="evenodd" d="M275.399 100.054C274.573 100.083 273.879 100.145 273.301 100.246C272.728 100.347 272.262 100.476 271.903 100.64C271.544 100.803 271.282 100.995 271.126 101.221C270.966 101.442 270.888 101.691 270.888 101.965C270.888 102.224 270.932 102.45 271.019 102.637C271.107 102.825 271.223 102.978 271.374 103.098C271.524 103.218 271.699 103.305 271.898 103.358C272.097 103.411 272.316 103.439 272.554 103.439C272.864 103.439 273.151 103.411 273.408 103.348C273.665 103.286 273.913 103.199 274.141 103.089C274.369 102.974 274.588 102.839 274.797 102.671C275.005 102.508 275.209 102.32 275.408 102.104V100.054H275.399ZM269.466 95.7126C270.053 95.1603 270.689 94.7426 271.379 94.4688C272.068 94.1951 272.821 94.0606 273.646 94.0606C274.248 94.0606 274.782 94.1567 275.243 94.3536C275.709 94.5505 276.098 94.8194 276.413 95.17C276.734 95.5205 276.972 95.9383 277.137 96.4233C277.297 96.9084 277.379 97.4462 277.379 98.0321V104.683H276.476C276.277 104.683 276.122 104.649 276.02 104.587C275.918 104.525 275.836 104.4 275.772 104.222L275.554 103.31C275.287 103.555 275.02 103.775 274.758 103.963C274.496 104.15 274.219 104.313 273.932 104.443C273.646 104.577 273.34 104.678 273.015 104.746C272.69 104.813 272.33 104.846 271.937 104.846C271.524 104.846 271.131 104.789 270.772 104.678C270.408 104.568 270.092 104.395 269.82 104.16C269.548 103.929 269.34 103.636 269.184 103.286C269.029 102.935 268.951 102.532 268.951 102.066C268.951 101.658 269.063 101.259 269.286 100.88C269.51 100.5 269.878 100.159 270.388 99.8569C270.898 99.5544 271.558 99.3094 272.379 99.1174C273.199 98.9253 274.204 98.8148 275.403 98.7908V98.0321C275.403 97.2445 275.234 96.6586 274.894 96.2697C274.554 95.8807 274.059 95.6838 273.398 95.6838C272.957 95.6838 272.583 95.7366 272.282 95.8471C271.981 95.9575 271.723 96.0776 271.505 96.212C271.286 96.3465 271.097 96.4665 270.937 96.577C270.772 96.6874 270.607 96.7403 270.432 96.7403C270.291 96.7403 270.175 96.7019 270.073 96.6298C269.971 96.553 269.893 96.4665 269.83 96.3609L269.466 95.7126Z" fill="white"/>
<path fill-rule="evenodd" clip-rule="evenodd" d="M287.541 96.7787C287.211 96.3465 286.851 96.0487 286.468 95.8758C286.084 95.703 285.652 95.6213 285.176 95.6213C284.249 95.6213 283.531 95.9527 283.026 96.6106C282.516 97.2685 282.263 98.2337 282.263 99.4967C282.263 100.159 282.322 100.726 282.433 101.197C282.55 101.667 282.715 102.047 282.933 102.344C283.152 102.642 283.419 102.863 283.739 103.002C284.06 103.142 284.419 103.214 284.817 103.214C285.405 103.214 285.914 103.084 286.342 102.825C286.769 102.565 287.172 102.2 287.546 101.725V96.7787H287.541ZM289.575 104.678H288.352C288.07 104.678 287.89 104.544 287.822 104.28L287.648 103.079C287.196 103.607 286.686 104.03 286.118 104.347C285.55 104.664 284.89 104.822 284.142 104.822C283.54 104.822 282.997 104.707 282.506 104.472C282.021 104.241 281.603 103.9 281.254 103.449C280.909 103.002 280.642 102.445 280.457 101.783C280.273 101.12 280.176 100.356 280.176 99.4919C280.176 98.7187 280.278 97.9984 280.487 97.3357C280.695 96.673 280.996 96.0967 281.39 95.6117C281.783 95.1267 282.259 94.7425 282.822 94.4688C283.38 94.1903 284.016 94.051 284.72 94.051C285.356 94.051 285.9 94.1519 286.342 94.3584C286.788 94.5648 287.186 94.853 287.541 95.2323V89.5273H289.575V104.678Z" fill="white"/>
<path d="M295.139 89.5321H293.105V104.678H295.139V89.5321Z" fill="white"/>
<path fill-rule="evenodd" clip-rule="evenodd" d="M305.665 98.3058C305.665 97.9072 305.607 97.5422 305.495 97.2061C305.378 96.8699 305.213 96.5818 304.99 96.3321C304.767 96.0872 304.5 95.8951 304.179 95.7558C303.859 95.6213 303.495 95.5493 303.077 95.5493C302.227 95.5493 301.557 95.7942 301.072 96.2792C300.582 96.7643 300.276 97.4366 300.145 98.301H305.665V98.3058ZM307.335 103.194C307.087 103.483 306.796 103.727 306.476 103.939C306.15 104.145 305.806 104.318 305.437 104.448C305.072 104.577 304.689 104.673 304.301 104.736C303.912 104.798 303.524 104.827 303.145 104.827C302.417 104.827 301.747 104.707 301.125 104.462C300.504 104.217 299.97 103.862 299.518 103.396C299.067 102.925 298.712 102.344 298.46 101.653C298.208 100.957 298.081 100.159 298.081 99.2566C298.081 98.5315 298.193 97.8544 298.426 97.2301C298.654 96.6058 298.979 96.0583 299.407 95.5925C299.834 95.1267 300.353 94.7617 300.97 94.4928C301.587 94.2239 302.276 94.0942 303.043 94.0942C303.684 94.0942 304.281 94.1999 304.82 94.4064C305.364 94.6129 305.83 94.9202 306.228 95.314C306.621 95.7126 306.932 96.2024 307.155 96.7835C307.379 97.3645 307.495 98.0272 307.495 98.7764C307.495 99.0837 307.461 99.2902 307.393 99.3959C307.325 99.5015 307.199 99.5543 307.01 99.5543H300.101C300.12 100.179 300.213 100.721 300.368 101.182C300.528 101.643 300.747 102.027 301.028 102.335C301.31 102.642 301.64 102.873 302.028 103.022C302.417 103.17 302.849 103.247 303.325 103.247C303.776 103.247 304.165 103.194 304.49 103.094C304.82 102.993 305.102 102.877 305.339 102.762C305.577 102.642 305.776 102.532 305.942 102.431C306.102 102.33 306.247 102.277 306.374 102.277C306.539 102.277 306.67 102.34 306.757 102.46L307.335 103.194Z" fill="white"/>
<path fill-rule="evenodd" clip-rule="evenodd" d="M316.535 96.0487C316.477 96.14 316.419 96.2024 316.36 96.2408C316.297 96.2792 316.219 96.2984 316.122 96.2984C316.011 96.2984 315.889 96.26 315.753 96.1832C315.617 96.1063 315.457 96.0247 315.263 95.9383C315.074 95.8518 314.85 95.7654 314.593 95.6934C314.336 95.6165 314.035 95.5829 313.68 95.5829C313.389 95.5829 313.127 95.6165 312.889 95.6886C312.651 95.7606 312.447 95.8614 312.282 95.9863C312.117 96.1111 311.986 96.2648 311.899 96.4377C311.806 96.6106 311.763 96.7979 311.763 96.9948C311.763 97.2541 311.84 97.4702 311.996 97.643C312.151 97.8159 312.355 97.96 312.607 98.0848C312.86 98.2097 313.146 98.3202 313.472 98.4162C313.792 98.517 314.122 98.6179 314.457 98.7283C314.792 98.8388 315.122 98.9637 315.443 99.1029C315.763 99.2422 316.05 99.4199 316.307 99.6264C316.559 99.8329 316.763 100.087 316.919 100.38C317.074 100.673 317.152 101.033 317.152 101.456C317.152 101.941 317.064 102.392 316.889 102.805C316.715 103.218 316.453 103.579 316.113 103.876C315.768 104.179 315.346 104.414 314.841 104.582C314.336 104.755 313.758 104.837 313.107 104.837C312.379 104.837 311.709 104.717 311.097 104.477C310.481 104.236 309.966 103.934 309.549 103.564L310.025 102.796C310.078 102.7 310.151 102.628 310.233 102.575C310.316 102.522 310.427 102.498 310.568 102.498C310.699 102.498 310.835 102.546 310.971 102.642C311.112 102.738 311.277 102.844 311.471 102.954C311.666 103.07 311.899 103.17 312.175 103.262C312.452 103.353 312.797 103.401 313.214 103.401C313.559 103.401 313.86 103.358 314.117 103.271C314.375 103.185 314.583 103.07 314.753 102.921C314.923 102.772 315.049 102.604 315.132 102.412C315.215 102.22 315.258 102.018 315.258 101.807C315.258 101.533 315.181 101.307 315.025 101.125C314.87 100.942 314.666 100.788 314.413 100.659C314.161 100.529 313.875 100.414 313.549 100.318C313.224 100.222 312.894 100.121 312.554 100.011C312.214 99.9001 311.884 99.7752 311.559 99.6312C311.233 99.4871 310.947 99.3046 310.69 99.0885C310.437 98.8676 310.233 98.6035 310.078 98.2865C309.923 97.9696 309.845 97.5902 309.845 97.1388C309.845 96.7354 309.927 96.3465 310.097 95.9815C310.267 95.6117 310.51 95.2852 310.835 95.0066C311.156 94.7281 311.554 94.5024 312.03 94.3343C312.501 94.1663 313.044 94.0846 313.651 94.0846C314.35 94.0846 314.981 94.1951 315.545 94.4112C316.108 94.6321 316.588 94.9298 316.991 95.314L316.535 96.0487Z" fill="white"/>
<path fill-rule="evenodd" clip-rule="evenodd" d="M326.235 96.0487C326.182 96.14 326.123 96.2024 326.06 96.2408C325.997 96.2792 325.92 96.2984 325.822 96.2984C325.711 96.2984 325.589 96.26 325.453 96.1832C325.317 96.1063 325.157 96.0247 324.968 95.9383C324.779 95.8518 324.555 95.7654 324.298 95.6934C324.041 95.6165 323.74 95.5829 323.385 95.5829C323.094 95.5829 322.832 95.6165 322.594 95.6886C322.356 95.7606 322.152 95.8614 321.987 95.9863C321.822 96.1111 321.691 96.2648 321.603 96.4377C321.516 96.6106 321.468 96.7979 321.468 96.9948C321.468 97.2541 321.545 97.4702 321.701 97.643C321.856 97.8159 322.06 97.96 322.312 98.0848C322.565 98.2097 322.851 98.3202 323.172 98.4162C323.492 98.517 323.822 98.6179 324.157 98.7283C324.492 98.8388 324.822 98.9637 325.143 99.1029C325.463 99.2422 325.75 99.4199 326.002 99.6264C326.255 99.8329 326.458 100.087 326.614 100.38C326.769 100.673 326.847 101.033 326.847 101.456C326.847 101.941 326.759 102.392 326.58 102.805C326.405 103.218 326.143 103.579 325.803 103.876C325.458 104.179 325.036 104.414 324.531 104.582C324.026 104.755 323.448 104.837 322.798 104.837C322.07 104.837 321.4 104.717 320.783 104.477C320.166 104.236 319.652 103.934 319.239 103.564L319.715 102.796C319.768 102.7 319.841 102.628 319.924 102.575C320.006 102.522 320.118 102.498 320.254 102.498C320.385 102.498 320.521 102.546 320.657 102.642C320.798 102.738 320.963 102.844 321.157 102.954C321.351 103.07 321.584 103.17 321.861 103.262C322.137 103.353 322.482 103.401 322.9 103.401C323.244 103.401 323.545 103.358 323.803 103.271C324.06 103.185 324.269 103.07 324.439 102.921C324.609 102.772 324.735 102.604 324.817 102.412C324.9 102.22 324.944 102.018 324.944 101.807C324.944 101.533 324.866 101.307 324.711 101.125C324.555 100.942 324.351 100.788 324.099 100.659C323.846 100.529 323.555 100.414 323.23 100.318C322.905 100.222 322.574 100.121 322.235 100.011C321.895 99.9001 321.565 99.7752 321.239 99.6312C320.914 99.4871 320.628 99.3046 320.375 99.0885C320.123 98.8676 319.919 98.6035 319.763 98.2865C319.608 97.9696 319.53 97.5902 319.53 97.1388C319.53 96.7354 319.613 96.3465 319.783 95.9815C319.953 95.6117 320.2 95.2852 320.521 95.0066C320.841 94.7281 321.239 94.5024 321.715 94.3343C322.191 94.1663 322.73 94.0846 323.342 94.0846C324.041 94.0846 324.672 94.1951 325.235 94.4112C325.798 94.6321 326.284 94.9298 326.682 95.314L326.235 96.0487Z" fill="white"/>
<path fill-rule="evenodd" clip-rule="evenodd" d="M346.441 101.518C346.568 101.518 346.674 101.566 346.762 101.663L347.631 102.609C347.024 103.319 346.281 103.872 345.407 104.261C344.533 104.649 343.48 104.846 342.247 104.846C341.169 104.846 340.193 104.664 339.314 104.294C338.44 103.924 337.693 103.411 337.071 102.743C336.45 102.08 335.974 101.288 335.634 100.361C335.294 99.4391 335.124 98.421 335.124 97.3117C335.124 96.2024 335.304 95.1892 335.658 94.2623C336.013 93.3403 336.513 92.5431 337.159 91.8804C337.8 91.2177 338.571 90.6991 339.47 90.3293C340.363 89.9596 341.353 89.7771 342.441 89.7771C343.499 89.7771 344.441 89.95 345.262 90.2909C346.087 90.6319 346.801 91.0881 347.408 91.6547L346.679 92.6728C346.631 92.7496 346.572 92.8073 346.5 92.8553C346.427 92.9033 346.33 92.9273 346.213 92.9273C346.082 92.9273 345.927 92.8601 345.752 92.7304C345.577 92.6008 345.344 92.4567 345.058 92.2934C344.771 92.135 344.417 91.9861 343.994 91.8564C343.572 91.7268 343.048 91.6595 342.417 91.6595C341.679 91.6595 340.999 91.7892 340.382 92.0437C339.766 92.2982 339.237 92.668 338.79 93.153C338.343 93.6333 337.999 94.2287 337.751 94.9298C337.503 95.631 337.382 96.4233 337.382 97.3069C337.382 98.2049 337.508 99.0021 337.766 99.6984C338.023 100.395 338.372 100.99 338.824 101.475C339.275 101.96 339.805 102.33 340.412 102.585C341.018 102.839 341.679 102.964 342.383 102.964C342.81 102.964 343.198 102.94 343.538 102.887C343.883 102.834 344.193 102.757 344.48 102.657C344.766 102.556 345.038 102.421 345.296 102.263C345.553 102.104 345.805 101.907 346.053 101.682C346.106 101.634 346.165 101.595 346.228 101.562C346.305 101.533 346.373 101.518 346.441 101.518Z" fill="white"/>
<path fill-rule="evenodd" clip-rule="evenodd" d="M366.211 89.9451V104.678H364.284V94.1903C364.284 94.0318 364.289 93.8637 364.298 93.686C364.308 93.5084 364.323 93.3259 364.332 93.1434L359.375 102.143C359.201 102.479 358.938 102.647 358.579 102.647H358.268C357.909 102.647 357.647 102.479 357.482 102.143L352.428 93.1146C352.467 93.4988 352.491 93.8589 352.491 94.1903V104.678H350.549V89.9451H352.19C352.384 89.9451 352.535 89.9643 352.642 90.0028C352.748 90.0412 352.85 90.1468 352.947 90.3149L357.929 99.1413C358.026 99.319 358.113 99.5063 358.196 99.708C358.278 99.9049 358.361 100.107 358.434 100.303C358.579 99.9001 358.749 99.5111 358.943 99.1317L363.823 90.3149C363.915 90.142 364.012 90.0412 364.119 90.0028C364.226 89.9643 364.376 89.9451 364.57 89.9451H366.211Z" fill="white"/>
<path fill-rule="evenodd" clip-rule="evenodd" d="M378.251 92.3462C378.183 92.4615 378.11 92.5479 378.033 92.6008C377.955 92.6536 377.858 92.6824 377.741 92.6824C377.615 92.6824 377.474 92.6248 377.314 92.5143C377.154 92.4039 376.955 92.2742 376.717 92.1349C376.479 91.9957 376.193 91.866 375.863 91.7556C375.532 91.6403 375.134 91.5875 374.668 91.5875C374.231 91.5875 373.848 91.6451 373.523 91.7556C373.192 91.866 372.921 92.0245 372.697 92.2166C372.474 92.4135 372.309 92.6392 372.192 92.9033C372.081 93.1674 372.022 93.4507 372.022 93.7581C372.022 94.1567 372.124 94.4832 372.328 94.7425C372.532 95.0019 372.799 95.2228 373.134 95.41C373.464 95.5925 373.843 95.7558 374.265 95.8903C374.688 96.0295 375.12 96.1688 375.562 96.3177C376.003 96.4665 376.436 96.6346 376.858 96.8267C377.28 97.0188 377.654 97.2589 377.989 97.5518C378.319 97.8448 378.591 98.2001 378.795 98.6179C378.999 99.0405 379.101 99.5543 379.101 100.164C379.101 100.813 378.989 101.422 378.761 101.989C378.538 102.556 378.212 103.055 377.78 103.478C377.353 103.9 376.824 104.236 376.198 104.477C375.571 104.721 374.862 104.842 374.066 104.842C373.59 104.842 373.124 104.794 372.678 104.702C372.226 104.611 371.804 104.481 371.401 104.313C370.998 104.145 370.624 103.944 370.275 103.708C369.925 103.473 369.614 103.209 369.338 102.911L369.969 101.864C370.032 101.783 370.105 101.715 370.192 101.658C370.279 101.605 370.376 101.576 370.488 101.576C370.634 101.576 370.799 101.653 370.993 101.802C371.182 101.951 371.42 102.119 371.697 102.301C371.979 102.484 372.314 102.647 372.702 102.801C373.09 102.949 373.566 103.026 374.129 103.026C374.586 103.026 374.994 102.969 375.353 102.849C375.712 102.729 376.018 102.561 376.261 102.335C376.508 102.114 376.693 101.845 376.824 101.528C376.955 101.211 377.023 100.865 377.023 100.481C377.023 100.049 376.921 99.6984 376.722 99.4247C376.523 99.151 376.256 98.9204 375.926 98.738C375.596 98.5555 375.217 98.397 374.795 98.2673C374.372 98.1377 373.94 98.0032 373.498 97.864C373.056 97.7247 372.624 97.5614 372.202 97.3789C371.78 97.1965 371.401 96.9515 371.071 96.6538C370.741 96.3561 370.474 95.9815 370.275 95.5349C370.075 95.0883 369.974 94.536 369.974 93.8781C369.974 93.3499 370.075 92.8409 370.284 92.351C370.493 91.8564 370.794 91.4242 371.192 91.0448C371.59 90.6655 372.081 90.3629 372.658 90.1324C373.241 89.9019 373.901 89.7867 374.649 89.7867C375.484 89.7867 376.256 89.9163 376.96 90.1805C377.664 90.4446 378.271 90.8239 378.79 91.3138L378.251 92.3462Z" fill="white"/>
<defs>
<linearGradient id="paint0_linear_1_532" x1="-18.7134" y1="52.501" x2="46.4839" y2="52.501" gradientUnits="userSpaceOnUse">
<stop offset="0.2239" stop-color="#FFDF00"/>
<stop offset="0.5849" stop-color="#FCAF17"/>
<stop offset="1" stop-color="#F47920"/>
</linearGradient>
<linearGradient id="paint1_linear_1_532" x1="24.2457" y1="52.5016" x2="66.1762" y2="52.5016" gradientUnits="userSpaceOnUse">
<stop offset="0.1532" stop-color="#F15B22"/>
<stop offset="0.5208" stop-color="#F47920"/>
<stop offset="0.7567" stop-color="#F8971D"/>
<stop offset="0.9278" stop-color="#FCAF17"/>
</linearGradient>
<linearGradient id="paint2_linear_1_532" x1="78.781" y1="52.4727" x2="143.416" y2="51.183" gradientUnits="userSpaceOnUse">
<stop offset="0.00481683" stop-color="#FCAF17"/>
<stop offset="0.4218" stop-color="#F47920"/>
</linearGradient>
</defs>
</svg>
