<svg width="26" height="29" viewBox="0 0 26 29" fill="none" xmlns="http://www.w3.org/2000/svg">
    <path
        d="M15.7999 7.20005V11.2C15.7999 12.4731 15.2942 13.694 14.394 14.5942C13.4938 15.4943 12.2729 16 10.9999 16C9.72686 16 8.50596 15.4943 7.60579 14.5942C6.70562 13.694 6.1999 12.4731 6.1999 11.2V7.20005M1.3999 6.40005V25.6C1.3999 26.0244 1.56847 26.4314 1.86853 26.7314C2.16859 27.0315 2.57556 27.2 2.9999 27.2H18.9999C19.4242 27.2 19.8312 27.0315 20.1313 26.7314C20.4313 26.4314 20.5999 26.0244 20.5999 25.6V6.40005C20.5999 5.9757 20.4313 5.56874 20.1313 5.26868C19.8312 4.96862 19.4242 4.80005 18.9999 4.80005H2.9999C2.57556 4.80005 2.16859 4.96862 1.86853 5.26868C1.56847 5.56874 1.3999 5.9757 1.3999 6.40005Z"
        stroke="#EC722B" stroke-width="2" />
    <circle cx="21" cy="5" r="5" fill="#EC722B" />
</svg>