<svg width="253" height="70" viewBox="0 0 253 70" fill="none" xmlns="http://www.w3.org/2000/svg">
<path d="M102.984 23.9466C109.467 23.9466 114.723 29.1458 114.723 35.5583C114.723 41.9708 109.467 47.17 102.984 47.17C96.5005 47.17 91.2442 41.9708 91.2442 35.5583C91.2442 29.1458 96.5005 23.9466 102.984 23.9466ZM102.984 28.1437C98.8439 28.1437 95.4875 31.4636 95.4875 35.5583C95.4875 39.653 98.8439 42.9729 102.984 42.9729C107.123 42.9729 110.48 39.653 110.48 35.5583C110.48 31.4604 107.123 28.1437 102.984 28.1437Z" fill="#FAA51A"/>
<path d="M118.303 45.1627L118.299 32.7058C118.299 27.8684 122.264 23.9466 127.155 23.9466C132.046 23.9466 136.01 27.8684 136.01 32.7058V45.1627C136.01 47.9608 131.767 47.9608 131.767 45.1627V32.7058C131.767 30.1863 129.702 28.1437 127.155 28.1437C124.608 28.1437 122.543 30.1863 122.543 32.7058L122.546 45.1627C122.546 47.9608 118.303 47.9608 118.303 45.1627Z" fill="#FAA51A"/>
<path d="M152.627 47.263H152.271C145.736 47.263 140.445 42.0254 140.445 35.5616C140.445 29.1043 145.73 23.8411 152.271 23.8411H152.699C155.527 23.8411 155.527 28.0382 152.699 28.0382H152.271C148.837 28.0382 145.931 30.3112 145.002 33.423H153.084C155.912 33.423 155.912 37.6202 153.084 37.6202H144.979C145.882 40.764 148.805 43.0659 152.275 43.0659H152.631C155.456 43.0659 155.456 47.263 152.627 47.263Z" fill="#FAA51A"/>
<path d="M220.203 45.1214L220.199 32.8822C220.199 28.0704 224.138 24.0621 229.055 24.0621H229.848C232.677 24.0621 232.677 28.2593 229.848 28.2593H229.055C226.534 28.2593 224.443 30.337 224.443 32.8822L224.446 45.1214C224.449 47.9162 220.206 47.9194 220.203 45.1214ZM246.222 38.9938V45.1182C246.222 47.9162 241.979 47.9162 241.979 45.1182V38.9938C238.111 38.0525 235.243 34.6014 235.243 30.4875V26.1623C235.243 23.3642 239.487 23.3642 239.487 26.1623V30.4875C239.487 33.007 241.552 35.0496 244.099 35.0496C246.646 35.0496 248.711 33.007 248.711 30.4875C248.711 29.2709 248.708 26.1623 248.708 26.1623C248.705 23.3642 252.948 23.361 252.951 26.1591C252.951 26.1591 252.954 29.2709 252.954 30.4875C252.954 34.6014 250.087 38.0557 246.222 38.9938ZM208.308 23.8604H212.703C215.532 23.8604 215.532 28.0576 212.703 28.0576H208.308V38.4655C208.308 41.0043 210.386 43.0692 212.917 43.0692H214.131C216.96 43.0692 216.96 47.2663 214.131 47.2663H212.917C208.007 47.2663 204.065 43.2869 204.065 38.4687V21.0688C204.065 18.2707 208.308 18.2707 208.308 21.0688V23.8604ZM181.722 45.163L181.719 32.7061C181.719 27.8687 185.684 23.9469 190.574 23.9469C195.465 23.9469 199.43 27.8687 199.43 32.7061V45.163C199.43 47.9611 195.187 47.9611 195.187 45.163V32.7061C195.187 30.1865 193.122 28.144 190.574 28.144C188.027 28.144 185.962 30.1865 185.962 32.7061L185.965 45.163C185.965 47.9611 181.722 47.9611 181.722 45.163ZM173.294 47.2631H172.938C166.403 47.2631 161.114 42.0255 161.114 35.5618C161.114 29.1044 166.4 23.8412 172.938 23.8412H173.365C176.194 23.8412 176.194 28.0384 173.365 28.0384H172.938C169.504 28.0384 166.597 30.3114 165.668 33.4232H173.75C176.579 33.4232 176.579 37.6203 173.75 37.6203H165.646C166.549 40.7642 169.471 43.066 172.941 43.066H173.297C176.123 43.066 176.123 47.2631 173.294 47.2631Z" fill="#F15B22"/>
<path d="M43.4682 0.918701C27.8157 4.53315 16.1605 18.4211 16.1605 35.0015C16.1605 51.5819 27.8157 65.4698 43.4649 69.0843C59.1141 65.4698 70.7693 51.5819 70.7693 35.0015C70.7726 18.4211 59.1174 4.53315 43.4682 0.918701ZM48.0027 49.3504C46.6012 50.5574 45.0735 51.5242 43.4682 52.2606C43.4682 52.2606 43.4682 52.2702 43.4682 52.2606C36.8848 49.2416 32.3211 42.6466 32.3211 34.9983C32.3211 27.35 36.8848 20.755 43.4682 17.736C45.86 18.8277 48.061 20.4284 49.8994 22.5222C56.8647 30.449 56.0167 42.4609 48.0027 49.3504Z" fill="#F15B22"/>
<path d="M35.3863 0C38.1666 0 40.8724 0.316945 43.465 0.915618C27.8158 4.53327 16.1606 18.4212 16.1606 35.0016C16.1606 51.582 27.8158 65.4699 43.465 69.0844C40.8692 69.6831 38.1634 70 35.3863 70C15.8434 70 0 54.332 0 35.0016C0.00323665 15.6712 15.8434 0 35.3863 0Z" fill="url(#paint0_linear_549_69)"/>
<path d="M22.7762 20.6495C28.6734 15.5784 36.8071 14.6948 43.4681 17.7394C36.8848 20.7584 32.3211 27.3534 32.3211 35.0017C32.3211 42.65 36.8848 49.245 43.4681 52.264C35.8976 55.7343 26.6278 54.0184 20.8795 47.4778C13.9143 39.5509 14.7623 27.5391 22.7762 20.6495Z" fill="url(#paint1_linear_549_69)"/>
<path d="M66.0571 22.5252C73.0224 30.4521 72.1744 42.4608 64.1604 49.3535C58.2632 54.4246 50.1295 55.3082 43.4685 52.2636C45.0739 51.5273 46.6016 50.5605 48.0031 49.3535C56.017 42.464 56.865 30.4521 49.8997 22.5252C48.0613 20.4315 45.8604 18.834 43.4685 17.7391C51.0358 14.2687 60.3088 15.9847 66.0571 22.5252Z" fill="url(#paint2_linear_549_69)"/>
<path d="M17.0893 27.0112L52.8446 27.0144C55.23 32.1048 55.1911 37.9698 52.8446 42.9897L17.0893 42.9929C16.484 40.4254 16.1636 37.7521 16.1636 35.0021C16.1636 32.252 16.4808 29.5756 17.0893 27.0112Z" fill="#F15B22"/>
<path fill-rule="evenodd" clip-rule="evenodd" d="M169.717 59.9636V69.7857H168.244V65.3613H163.062V69.7857H161.583V59.9636H163.062V64.3016H168.244V59.9636H169.717Z" fill="black" fill-opacity="0.8"/>
<path fill-rule="evenodd" clip-rule="evenodd" d="M176.718 65.5373C176.718 65.2716 176.679 65.0283 176.605 64.8042C176.527 64.5801 176.417 64.388 176.268 64.2215C176.119 64.0583 175.941 63.9302 175.727 63.8374C175.514 63.7477 175.271 63.6997 174.996 63.6997C174.43 63.6997 173.983 63.863 173.656 64.1863C173.332 64.5097 173.125 64.9579 173.038 65.5341H176.718V65.5373ZM177.831 68.7964C177.666 68.9885 177.475 69.1518 177.258 69.2927C177.042 69.4303 176.812 69.5456 176.566 69.632C176.323 69.7184 176.067 69.7825 175.808 69.8241C175.546 69.8657 175.29 69.8849 175.038 69.8849C174.553 69.8849 174.106 69.8049 173.692 69.6416C173.281 69.4783 172.921 69.2414 172.62 68.9309C172.319 68.6171 172.083 68.2298 171.915 67.7688C171.746 67.3045 171.662 66.7731 171.662 66.1712C171.662 65.6878 171.74 65.2364 171.892 64.8202C172.044 64.404 172.261 64.0391 172.546 63.7285C172.831 63.418 173.177 63.1747 173.588 62.9954C173.999 62.8161 174.459 62.7297 174.97 62.7297C175.401 62.7297 175.795 62.8001 176.158 62.9377C176.52 63.0754 176.831 63.2803 177.097 63.5428C177.359 63.8085 177.566 64.1351 177.715 64.5225C177.864 64.9099 177.941 65.3517 177.941 65.8511C177.941 66.056 177.919 66.1936 177.873 66.2641C177.828 66.3345 177.741 66.3697 177.618 66.3697H173.012C173.025 66.7859 173.086 67.1477 173.19 67.455C173.297 67.7624 173.442 68.0185 173.63 68.2234C173.818 68.4283 174.038 68.5819 174.297 68.6812C174.556 68.7804 174.844 68.8316 175.161 68.8316C175.462 68.8316 175.721 68.7964 175.938 68.7292C176.158 68.662 176.346 68.5851 176.504 68.5083C176.663 68.4283 176.799 68.3546 176.906 68.2874C177.012 68.2202 177.11 68.1849 177.194 68.1849C177.304 68.1849 177.391 68.2266 177.449 68.3066L177.831 68.7964Z" fill="black" fill-opacity="0.8"/>
<path fill-rule="evenodd" clip-rule="evenodd" d="M183.599 66.7027C183.049 66.7219 182.586 66.7635 182.201 66.8307C181.819 66.898 181.508 66.9844 181.269 67.0933C181.029 67.2021 180.854 67.3302 180.751 67.4806C180.644 67.6279 180.592 67.7944 180.592 67.9769C180.592 68.1497 180.621 68.3002 180.679 68.4251C180.738 68.5499 180.815 68.6524 180.916 68.7324C181.016 68.8125 181.133 68.8701 181.265 68.9053C181.398 68.9405 181.544 68.9597 181.702 68.9597C181.909 68.9597 182.1 68.9405 182.272 68.8989C182.443 68.8573 182.609 68.7996 182.761 68.726C182.913 68.6492 183.058 68.5595 183.198 68.4475C183.337 68.3386 183.473 68.2138 183.605 68.0697V66.7027H183.599ZM179.644 63.8086C180.035 63.4404 180.459 63.1619 180.919 62.9794C181.379 62.7969 181.88 62.7073 182.431 62.7073C182.832 62.7073 183.188 62.7713 183.495 62.9026C183.806 63.0338 184.065 63.2131 184.275 63.4468C184.489 63.6805 184.648 63.959 184.758 64.2824C184.864 64.6057 184.919 64.9643 184.919 65.3549V69.7889H184.317C184.185 69.7889 184.081 69.7665 184.013 69.7249C183.945 69.6833 183.89 69.6 183.848 69.4816L183.703 68.8733C183.524 69.0366 183.346 69.1838 183.172 69.3087C182.997 69.4335 182.812 69.5424 182.621 69.6288C182.43 69.7185 182.227 69.7857 182.01 69.8305C181.793 69.8753 181.553 69.8977 181.291 69.8977C181.016 69.8977 180.754 69.8593 180.514 69.7857C180.272 69.7121 180.061 69.5968 179.88 69.4399C179.699 69.2863 179.56 69.091 179.456 68.8573C179.352 68.6236 179.301 68.3546 179.301 68.0441C179.301 67.772 179.375 67.5063 179.524 67.2533C179.673 67.0004 179.919 66.7731 180.259 66.5714C180.599 66.3697 181.039 66.2065 181.586 66.0784C182.133 65.9503 182.803 65.8767 183.602 65.8607V65.3549C183.602 64.8298 183.489 64.4393 183.262 64.1799C183.036 63.9206 182.706 63.7894 182.265 63.7894C181.971 63.7894 181.722 63.8246 181.521 63.8982C181.32 63.9718 181.149 64.0519 181.003 64.1415C180.857 64.2312 180.731 64.3112 180.624 64.3848C180.514 64.4585 180.404 64.4937 180.288 64.4937C180.194 64.4937 180.116 64.4681 180.048 64.42C179.98 64.3688 179.929 64.3112 179.886 64.2408L179.644 63.8086Z" fill="black" fill-opacity="0.8"/>
<path fill-rule="evenodd" clip-rule="evenodd" d="M191.694 64.5193C191.474 64.2311 191.234 64.0326 190.978 63.9174C190.723 63.8021 190.435 63.7477 190.117 63.7477C189.499 63.7477 189.02 63.9686 188.684 64.4072C188.344 64.8458 188.176 65.4893 188.176 66.3313C188.176 66.7731 188.214 67.1509 188.289 67.4646C188.366 67.7784 188.477 68.0313 188.622 68.2298C188.768 68.4283 188.946 68.5755 189.159 68.6684C189.373 68.7612 189.613 68.8092 189.878 68.8092C190.27 68.8092 190.609 68.7228 190.894 68.5499C191.179 68.377 191.448 68.1337 191.697 67.8168V64.5193H191.694ZM193.05 69.7857H192.234C192.047 69.7857 191.927 69.696 191.881 69.52L191.765 68.7196C191.464 69.0717 191.124 69.3535 190.745 69.5648C190.367 69.7761 189.927 69.8817 189.428 69.8817C189.027 69.8817 188.664 69.8049 188.337 69.648C188.014 69.4943 187.735 69.267 187.502 68.9661C187.272 68.6684 187.094 68.297 186.971 67.8552C186.848 67.4134 186.784 66.9044 186.784 66.3281C186.784 65.8127 186.852 65.3324 186.991 64.8906C187.13 64.4488 187.331 64.0647 187.593 63.7413C187.855 63.418 188.172 63.1618 188.548 62.9794C188.92 62.7937 189.344 62.7008 189.813 62.7008C190.237 62.7008 190.6 62.7681 190.894 62.9057C191.192 63.0434 191.457 63.2355 191.694 63.4884V59.6851H193.05V69.7857Z" fill="black" fill-opacity="0.8"/>
<path d="M196.759 59.6883H195.403V69.7857H196.759V59.6883Z" fill="black" fill-opacity="0.8"/>
<path fill-rule="evenodd" clip-rule="evenodd" d="M203.776 65.5373C203.776 65.2716 203.738 65.0283 203.663 64.8042C203.585 64.5801 203.475 64.388 203.327 64.2215C203.178 64.0583 203 63.9302 202.786 63.8374C202.572 63.7477 202.33 63.6997 202.051 63.6997C201.485 63.6997 201.038 63.863 200.715 64.1863C200.388 64.5097 200.184 64.9579 200.096 65.5341H203.776V65.5373ZM204.89 68.7964C204.725 68.9885 204.531 69.1518 204.317 69.2927C204.1 69.4303 203.87 69.5456 203.624 69.632C203.382 69.7184 203.126 69.7825 202.867 69.8241C202.608 69.8657 202.349 69.8849 202.097 69.8849C201.611 69.8849 201.164 69.8049 200.75 69.6416C200.336 69.4783 199.98 69.2414 199.679 68.9309C199.378 68.6171 199.142 68.2298 198.973 67.7688C198.805 67.3045 198.721 66.7731 198.721 66.1712C198.721 65.6878 198.795 65.2364 198.951 64.8202C199.103 64.404 199.32 64.0391 199.604 63.7285C199.889 63.418 200.236 63.1747 200.647 62.9954C201.058 62.8161 201.517 62.7297 202.029 62.7297C202.456 62.7297 202.854 62.8001 203.213 62.9377C203.576 63.0754 203.886 63.2803 204.152 63.5428C204.414 63.8085 204.621 64.1351 204.77 64.5225C204.919 64.9099 204.997 65.3517 204.997 65.8511C204.997 66.056 204.974 66.1936 204.929 66.2641C204.883 66.3345 204.799 66.3697 204.673 66.3697H200.067C200.08 66.7859 200.142 67.1477 200.245 67.455C200.352 67.7624 200.498 68.0185 200.685 68.2234C200.873 68.4283 201.093 68.5819 201.352 68.6812C201.611 68.7804 201.899 68.8316 202.216 68.8316C202.517 68.8316 202.776 68.7964 202.993 68.7292C203.213 68.662 203.401 68.5851 203.56 68.5083C203.718 68.4283 203.851 68.3546 203.961 68.2874C204.068 68.2202 204.165 68.1849 204.249 68.1849C204.359 68.1849 204.446 68.2266 204.505 68.3066L204.89 68.7964Z" fill="black" fill-opacity="0.8"/>
<path fill-rule="evenodd" clip-rule="evenodd" d="M211.023 64.0326C210.984 64.0935 210.946 64.1351 210.907 64.1607C210.865 64.1863 210.813 64.1991 210.748 64.1991C210.674 64.1991 210.593 64.1735 210.502 64.1223C210.412 64.0711 210.305 64.0166 210.175 63.959C210.049 63.9014 209.9 63.8438 209.729 63.7957C209.557 63.7445 209.356 63.7221 209.12 63.7221C208.926 63.7221 208.751 63.7445 208.593 63.7925C208.434 63.8406 208.298 63.9078 208.188 63.991C208.078 64.0743 207.991 64.1767 207.932 64.292C207.871 64.4072 207.842 64.5321 207.842 64.6633C207.842 64.8362 207.893 64.9803 207.997 65.0955C208.101 65.2108 208.236 65.3068 208.405 65.3901C208.573 65.4733 208.764 65.5469 208.981 65.611C209.195 65.6782 209.415 65.7454 209.638 65.8191C209.861 65.8927 210.081 65.9759 210.295 66.0688C210.509 66.1616 210.7 66.2801 210.871 66.4177C211.039 66.5554 211.175 66.7251 211.279 66.9204C211.383 67.1156 211.434 67.3558 211.434 67.6375C211.434 67.9608 211.376 68.2618 211.26 68.5371C211.143 68.8124 210.968 69.0525 210.742 69.251C210.512 69.4527 210.23 69.6096 209.894 69.7216C209.557 69.8369 209.172 69.8913 208.738 69.8913C208.253 69.8913 207.806 69.8113 207.398 69.6512C206.987 69.4911 206.644 69.2894 206.366 69.0429L206.683 68.5307C206.719 68.4667 206.767 68.4186 206.822 68.3834C206.877 68.3482 206.952 68.3322 207.045 68.3322C207.133 68.3322 207.223 68.3642 207.314 68.4283C207.408 68.4923 207.518 68.5627 207.647 68.6363C207.777 68.7132 207.932 68.7804 208.117 68.8412C208.301 68.9021 208.531 68.9341 208.809 68.9341C209.039 68.9341 209.24 68.9053 209.411 68.8476C209.583 68.79 209.722 68.7132 209.835 68.6139C209.949 68.5147 210.033 68.4026 210.088 68.2746C210.143 68.1465 210.172 68.0121 210.172 67.8712C210.172 67.6887 210.12 67.5382 210.017 67.4166C209.913 67.2949 209.777 67.1925 209.609 67.106C209.441 67.0196 209.25 66.9428 209.033 66.8787C208.816 66.8147 208.596 66.7475 208.369 66.6739C208.143 66.6002 207.923 66.517 207.706 66.4209C207.489 66.3249 207.298 66.2032 207.126 66.0592C206.958 65.9119 206.822 65.7358 206.719 65.5245C206.615 65.3132 206.563 65.0603 206.563 64.7594C206.563 64.4904 206.618 64.2311 206.731 63.9878C206.845 63.7413 207.007 63.5236 207.223 63.3379C207.437 63.1522 207.702 63.0018 208.02 62.8897C208.334 62.7777 208.696 62.7232 209.101 62.7232C209.567 62.7232 209.988 62.7969 210.363 62.9409C210.738 63.0882 211.059 63.2867 211.327 63.5428L211.023 64.0326Z" fill="black" fill-opacity="0.8"/>
<path fill-rule="evenodd" clip-rule="evenodd" d="M217.49 64.0326C217.454 64.0935 217.415 64.1351 217.373 64.1607C217.331 64.1863 217.28 64.1991 217.215 64.1991C217.14 64.1991 217.059 64.1735 216.969 64.1223C216.878 64.0711 216.771 64.0166 216.645 63.959C216.519 63.9014 216.37 63.8438 216.199 63.7957C216.027 63.7445 215.826 63.7221 215.59 63.7221C215.396 63.7221 215.221 63.7445 215.062 63.7925C214.904 63.8406 214.768 63.9078 214.658 63.991C214.548 64.0743 214.46 64.1767 214.402 64.292C214.344 64.4072 214.312 64.5321 214.312 64.6633C214.312 64.8362 214.363 64.9803 214.467 65.0955C214.57 65.2108 214.706 65.3068 214.875 65.3901C215.043 65.4733 215.234 65.5469 215.448 65.611C215.661 65.6782 215.881 65.7454 216.105 65.8191C216.328 65.8927 216.548 65.9759 216.762 66.0688C216.975 66.1616 217.166 66.2801 217.335 66.4177C217.503 66.5554 217.639 66.7251 217.742 66.9204C217.846 67.1156 217.898 67.3558 217.898 67.6375C217.898 67.9608 217.839 68.2618 217.72 68.5371C217.603 68.8124 217.428 69.0525 217.202 69.251C216.972 69.4527 216.69 69.6096 216.354 69.7216C216.017 69.8369 215.632 69.8913 215.198 69.8913C214.713 69.8913 214.266 69.8113 213.855 69.6512C213.444 69.4911 213.101 69.2894 212.826 69.0429L213.143 68.5307C213.179 68.4667 213.227 68.4186 213.282 68.3834C213.337 68.3482 213.412 68.3322 213.502 68.3322C213.59 68.3322 213.68 68.3642 213.771 68.4283C213.865 68.4923 213.975 68.5627 214.104 68.6363C214.234 68.7132 214.389 68.7804 214.574 68.8412C214.758 68.9021 214.988 68.9341 215.266 68.9341C215.496 68.9341 215.697 68.9053 215.868 68.8476C216.04 68.79 216.179 68.7132 216.292 68.6139C216.406 68.5147 216.49 68.4026 216.545 68.2746C216.6 68.1465 216.629 68.0121 216.629 67.8712C216.629 67.6887 216.577 67.5382 216.474 67.4166C216.37 67.2949 216.234 67.1925 216.066 67.106C215.898 67.0196 215.703 66.9428 215.486 66.8787C215.27 66.8147 215.05 66.7475 214.823 66.6739C214.596 66.6002 214.376 66.517 214.159 66.4209C213.943 66.3249 213.752 66.2032 213.583 66.0592C213.415 65.9119 213.279 65.7358 213.175 65.5245C213.072 65.3132 213.02 65.0603 213.02 64.7594C213.02 64.4904 213.075 64.2311 213.188 63.9878C213.302 63.7413 213.467 63.5236 213.68 63.3379C213.894 63.1522 214.159 63.0018 214.477 62.8897C214.794 62.7777 215.153 62.7232 215.561 62.7232C216.027 62.7232 216.448 62.7969 216.823 62.9409C217.199 63.0882 217.522 63.2867 217.788 63.5428L217.49 64.0326Z" fill="black" fill-opacity="0.8"/>
<path fill-rule="evenodd" clip-rule="evenodd" d="M230.961 67.6791C231.045 67.6791 231.116 67.7111 231.174 67.7752L231.754 68.4059C231.349 68.8797 230.854 69.2478 230.271 69.5072C229.689 69.7665 228.986 69.8977 228.164 69.8977C227.446 69.8977 226.795 69.7761 226.209 69.5296C225.627 69.2831 225.128 68.9405 224.714 68.4955C224.3 68.0537 223.983 67.5255 223.756 66.9076C223.529 66.2929 223.416 65.6142 223.416 64.8746C223.416 64.1351 223.536 63.4596 223.772 62.8417C224.008 62.227 224.342 61.6956 224.772 61.2538C225.2 60.812 225.714 60.4662 226.313 60.2197C226.909 59.9732 227.569 59.8516 228.294 59.8516C228.999 59.8516 229.627 59.9668 230.174 60.1941C230.725 60.4214 231.2 60.7256 231.605 61.1033L231.119 61.782C231.087 61.8333 231.048 61.8717 231 61.9037C230.951 61.9357 230.886 61.9517 230.809 61.9517C230.721 61.9517 230.618 61.9069 230.501 61.8205C230.385 61.734 230.229 61.638 230.038 61.5291C229.847 61.4235 229.611 61.3242 229.33 61.2378C229.048 61.1513 228.698 61.1065 228.278 61.1065C227.786 61.1065 227.332 61.193 226.921 61.3626C226.51 61.5323 226.158 61.7788 225.86 62.1022C225.562 62.4223 225.332 62.8193 225.167 63.2867C225.002 63.7541 224.921 64.2824 224.921 64.8714C224.921 65.4701 225.005 66.0016 225.177 66.4658C225.348 66.93 225.581 67.327 225.882 67.6503C226.183 67.9737 226.536 68.2202 226.941 68.3899C227.345 68.5595 227.786 68.6428 228.255 68.6428C228.54 68.6428 228.799 68.6268 229.025 68.5915C229.255 68.5563 229.462 68.5051 229.653 68.4379C229.844 68.3706 230.025 68.281 230.197 68.1754C230.368 68.0697 230.537 67.9385 230.702 67.788C230.737 67.756 230.776 67.7304 230.818 67.7079C230.87 67.6887 230.915 67.6791 230.961 67.6791Z" fill="black" fill-opacity="0.8"/>
<path fill-rule="evenodd" clip-rule="evenodd" d="M244.141 59.9636V69.7857H242.856V62.7937C242.856 62.688 242.859 62.576 242.865 62.4575C242.872 62.3391 242.882 62.2174 242.888 62.0958L239.583 68.0953C239.467 68.3194 239.292 68.4315 239.053 68.4315H238.846C238.606 68.4315 238.431 68.3194 238.321 68.0953L234.952 62.0766C234.978 62.3327 234.994 62.5728 234.994 62.7937V69.7857H233.699V59.9636H234.793C234.923 59.9636 235.023 59.9764 235.094 60.002C235.165 60.0276 235.233 60.0981 235.298 60.2101L238.619 66.0944C238.684 66.2128 238.742 66.3377 238.797 66.4722C238.852 66.6034 238.907 66.7379 238.956 66.8692C239.053 66.6002 239.166 66.3409 239.295 66.088L242.548 60.2101C242.61 60.0949 242.674 60.0276 242.746 60.002C242.817 59.9764 242.917 59.9636 243.047 59.9636H244.141Z" fill="black" fill-opacity="0.8"/>
<path fill-rule="evenodd" clip-rule="evenodd" d="M252.167 61.5643C252.122 61.6412 252.074 61.6988 252.022 61.734C251.97 61.7692 251.905 61.7884 251.828 61.7884C251.743 61.7884 251.65 61.75 251.543 61.6764C251.436 61.6027 251.303 61.5163 251.145 61.4235C250.986 61.3306 250.795 61.2442 250.575 61.1705C250.355 61.0937 250.089 61.0585 249.779 61.0585C249.487 61.0585 249.232 61.0969 249.015 61.1705C248.795 61.2442 248.614 61.3498 248.465 61.4779C248.316 61.6091 248.206 61.7596 248.128 61.9357C248.054 62.1118 248.015 62.3007 248.015 62.5056C248.015 62.7713 248.083 62.989 248.219 63.1619C248.355 63.3347 248.533 63.482 248.756 63.6069C248.976 63.7285 249.229 63.8374 249.51 63.927C249.792 64.0198 250.08 64.1127 250.374 64.2119C250.669 64.3112 250.957 64.4232 251.238 64.5513C251.52 64.6793 251.769 64.8394 251.993 65.0347C252.213 65.23 252.394 65.4669 252.53 65.7454C252.666 66.0272 252.734 66.3697 252.734 66.7763C252.734 67.2085 252.659 67.6151 252.507 67.9929C252.358 68.3706 252.141 68.7036 251.853 68.9853C251.569 69.267 251.216 69.4911 250.798 69.6512C250.381 69.8145 249.908 69.8945 249.377 69.8945C249.06 69.8945 248.749 69.8625 248.452 69.8017C248.151 69.7409 247.869 69.6544 247.6 69.5424C247.332 69.4303 247.083 69.2959 246.85 69.139C246.617 68.9821 246.409 68.806 246.225 68.6075L246.646 67.9096C246.688 67.8552 246.736 67.8104 246.795 67.772C246.853 67.7367 246.918 67.7175 246.992 67.7175C247.089 67.7175 247.199 67.7688 247.329 67.868C247.455 67.9672 247.613 68.0793 247.798 68.201C247.986 68.3226 248.209 68.4315 248.468 68.5339C248.727 68.6332 249.044 68.6844 249.419 68.6844C249.724 68.6844 249.996 68.646 250.235 68.5659C250.475 68.4859 250.679 68.3738 250.84 68.2234C251.005 68.0761 251.128 67.8968 251.216 67.6855C251.303 67.4742 251.349 67.2437 251.349 66.9876C251.349 66.6995 251.281 66.4658 251.148 66.2833C251.015 66.1008 250.837 65.9471 250.617 65.8255C250.397 65.7038 250.144 65.5982 249.863 65.5117C249.581 65.4253 249.293 65.3356 248.999 65.2428C248.704 65.15 248.416 65.0411 248.135 64.9195C247.853 64.7978 247.6 64.6345 247.38 64.436C247.16 64.2375 246.982 63.9878 246.85 63.6901C246.717 63.3924 246.649 63.0242 246.649 62.5856C246.649 62.2334 246.717 61.8941 246.856 61.5675C246.995 61.2378 247.196 60.9496 247.461 60.6967C247.727 60.4438 248.054 60.2421 248.439 60.0884C248.827 59.9348 249.267 59.8579 249.766 59.8579C250.322 59.8579 250.837 59.9444 251.306 60.1205C251.776 60.2965 252.18 60.5495 252.527 60.876L252.167 61.5643Z" fill="black" fill-opacity="0.8"/>
<defs>
<linearGradient id="paint0_linear_549_69" x1="-12.4756" y1="35.0007" x2="30.9893" y2="35.0007" gradientUnits="userSpaceOnUse">
<stop offset="0.2239" stop-color="#FFDF00"/>
<stop offset="0.5849" stop-color="#FCAF17"/>
<stop offset="1" stop-color="#F47920"/>
</linearGradient>
<linearGradient id="paint1_linear_549_69" x1="16.1635" y1="35.001" x2="44.1172" y2="35.001" gradientUnits="userSpaceOnUse">
<stop offset="0.1532" stop-color="#F15B22"/>
<stop offset="0.5208" stop-color="#F47920"/>
<stop offset="0.7567" stop-color="#F8971D"/>
<stop offset="0.9278" stop-color="#FCAF17"/>
</linearGradient>
<linearGradient id="paint2_linear_549_69" x1="52.5208" y1="34.9817" x2="95.6107" y2="34.1219" gradientUnits="userSpaceOnUse">
<stop offset="0.00481683" stop-color="#FCAF17"/>
<stop offset="0.4218" stop-color="#F47920"/>
</linearGradient>
</defs>
</svg>
