<svg width="18" height="17" viewBox="0 0 18 17" fill="none" xmlns="http://www.w3.org/2000/svg">
<path d="M9 0C10.4322 0 11.8057 0.5656 12.8184 1.57237C13.8311 2.57915 14.4 3.94463 14.4 5.36842V6.26316H18V8.05263H16.9497L16.2684 16.1795C16.2497 16.4031 16.1471 16.6115 15.9811 16.7635C15.8151 16.9155 15.5977 16.9999 15.372 17H2.628C2.40217 17.0001 2.18455 16.9158 2.01833 16.7638C1.85211 16.6118 1.74944 16.4033 1.7307 16.1795L1.0494 8.05263H0V6.26316H3.6V5.36842C3.6 3.94463 4.16893 2.57915 5.18162 1.57237C6.19432 0.5656 7.56783 0 9 0ZM15.1434 8.05263H2.8557L3.456 15.2105H14.5431L15.1434 8.05263ZM9.9 9.8421V13.4211H8.1V9.8421H9.9ZM6.3 9.8421V13.4211H4.5V9.8421H6.3ZM13.5 9.8421V13.4211H11.7V9.8421H13.5ZM9 1.78947C8.07638 1.78947 7.18809 2.14239 6.51887 2.77523C5.84964 3.40806 5.45068 4.27241 5.4045 5.18947L5.4 5.36842V6.26316H12.6V5.36842C12.6 4.4502 12.245 3.56711 11.6084 2.9018C10.9719 2.23649 10.1025 1.83986 9.18 1.79395L9 1.78947Z" fill="#4C4D56"/>
</svg>
