<svg width="14" height="20" viewBox="0 0 14 20" fill="none" xmlns="http://www.w3.org/2000/svg">
<path d="M5.25 3.75H10.5V5H5.25V3.75Z" fill="#4C4D56"/>
<path d="M5.25 6.25H10.5V7.5H5.25V6.25Z" fill="#4C4D56"/>
<path d="M5.25 8.75H10.5V10H5.25V8.75Z" fill="#4C4D56"/>
<path d="M5.25 11.25H10.5V12.5H5.25V11.25Z" fill="#4C4D56"/>
<path d="M5.25 13.75H10.5V15H5.25V13.75Z" fill="#4C4D56"/>
<path d="M2.91667 3.75H4.08333V5H2.91667V3.75Z" fill="#4C4D56"/>
<path d="M2.91667 6.25H4.08333V7.5H2.91667V6.25Z" fill="#4C4D56"/>
<path d="M2.91667 8.75H4.08333V10H2.91667V8.75Z" fill="#4C4D56"/>
<path d="M2.91667 11.25H4.08333V12.5H2.91667V11.25Z" fill="#4C4D56"/>
<path d="M2.91667 13.75H4.08333V15H2.91667V13.75Z" fill="#4C4D56"/>
<path d="M12.8333 4.22915e-10L1.16667 0C0.857247 0 0.560501 0.131696 0.341709 0.366116C0.122916 0.600537 5.63023e-10 0.918479 5.52556e-10 1.25L0 18.75C0 19.0815 0.122916 19.3995 0.341709 19.6339C0.560501 19.8683 0.857247 20 1.16667 20H12.8333C13.1428 20 13.4395 19.8683 13.6583 19.6339C13.8771 19.3995 14 19.0815 14 18.75V1.25C14 0.918479 13.8771 0.600537 13.6583 0.366116C13.4395 0.131696 13.1428 4.34129e-10 12.8333 4.22915e-10ZM12.8333 18.75H1.16667V1.25H12.8333V18.75Z" fill="#4C4D56"/>
</svg>
