<svg width="23" height="23" viewBox="0 0 23 23" fill="none" xmlns="http://www.w3.org/2000/svg">
<path fill-rule="evenodd" clip-rule="evenodd" d="M7.12817 1.24805C7.12817 0.695762 6.68046 0.248047 6.12817 0.248047C5.57589 0.248047 5.12817 0.695762 5.12817 1.24805V2.32632C5.12817 2.39296 5.13469 2.45807 5.14712 2.52106C4.94692 2.53873 4.7547 2.55967 4.5703 2.58447C3.34236 2.74963 2.31224 3.10241 1.49495 3.92024C0.677122 4.73753 0.324334 5.76766 0.159182 6.99559C-4.59519e-05 8.17947 -2.54619e-05 9.68553 0 11.557V11.557V13.7551V13.7551C-2.54619e-05 15.6266 -4.59552e-05 17.1327 0.159182 18.3165C0.324355 19.5446 0.677209 20.5748 1.49525 21.3922C2.31249 22.2098 3.34251 22.5625 4.5703 22.7277C5.75418 22.8869 7.26027 22.8869 9.13176 22.8868H13.3077C13.86 22.8868 14.3077 22.4391 14.3077 21.8868C14.3077 21.3345 13.86 20.8868 13.3077 20.8868H9.20513C7.243 20.8868 5.87192 20.8847 4.83689 20.7455C3.83061 20.6102 3.29254 20.3614 2.90886 19.9774C2.52485 19.5937 2.27667 19.0562 2.14133 18.0499C2.00213 17.0149 2 15.6438 2 13.6817V11.6304C2 10.85 2.00034 10.1632 2.0095 9.55371L4.97431 9.55371C5.52659 9.55371 5.97431 9.106 5.97431 8.55371C5.97431 8.00143 5.52659 7.55371 4.97431 7.55371L2.10659 7.55371C2.1171 7.45362 2.12865 7.3565 2.14133 7.26218C2.27667 6.2559 2.52545 5.71783 2.90946 5.33415C3.29315 4.95014 3.83061 4.70197 4.83689 4.56663C5.87192 4.42742 7.243 4.42529 9.20513 4.42529H13.3077C15.2698 4.42529 16.6409 4.42742 17.6759 4.56663C18.6822 4.70197 19.2203 4.95074 19.604 5.33475C19.988 5.71844 20.2362 6.2559 20.3715 7.26218C20.3842 7.3565 20.3957 7.45362 20.4062 7.55371L9.97431 7.55371C9.42202 7.55371 8.97431 8.00143 8.97431 8.55371C8.97431 9.106 9.42202 9.55371 9.97431 9.55371L20.5033 9.55371C20.5125 10.1632 20.5128 10.85 20.5128 11.6304V13.6817C20.5128 15.6438 20.5107 17.0149 20.3715 18.0499C20.2362 19.0562 19.988 19.5937 19.604 19.9774L19.6031 19.9782C19.1759 20.4061 18.5583 20.6653 17.313 20.787C16.7634 20.8407 16.3613 21.3298 16.415 21.8794C16.4687 22.4291 16.9578 22.8312 17.5075 22.7775C18.9288 22.6386 20.1059 22.3051 21.0182 21.3916C21.8358 20.5744 22.1885 19.5443 22.3536 18.3165C22.5129 17.1326 22.5128 15.6266 22.5128 13.7551V11.557C22.5128 9.68551 22.5129 8.17948 22.3536 6.99559C22.1885 5.76781 21.8358 4.73779 21.0182 3.92054C20.2008 3.1025 19.1706 2.74965 17.9425 2.58447C17.7581 2.55967 17.5659 2.53873 17.3656 2.52105C17.3781 2.45807 17.3846 2.39295 17.3846 2.32632V1.24805C17.3846 0.695762 16.9369 0.248047 16.3846 0.248047C15.8323 0.248047 15.3846 0.695762 15.3846 1.24805V2.32632C15.3846 2.36286 15.3865 2.39894 15.3904 2.43447C14.7736 2.42527 14.1046 2.42528 13.3811 2.42529H9.13175C8.40817 2.42528 7.73922 2.42527 7.12239 2.43447C7.12621 2.39894 7.12817 2.36286 7.12817 2.32632V1.24805ZM17.1098 17.4838C17.3022 17.2915 17.4102 17.0306 17.4102 16.7586C17.4102 16.4866 17.3022 16.2257 17.1098 16.0333C16.9175 15.841 16.6566 15.7329 16.3846 15.7329C16.1126 15.7329 15.8517 15.841 15.6594 16.0333C15.467 16.2257 15.3589 16.4866 15.3589 16.7586C15.3589 17.0306 15.467 17.2915 15.6594 17.4838C15.8517 17.6762 16.1126 17.7842 16.3846 17.7842C16.6566 17.7842 16.9175 17.6762 17.1098 17.4838ZM17.1098 13.3812C17.3022 13.1889 17.4102 12.928 17.4102 12.656C17.4102 12.384 17.3022 12.1231 17.1098 11.9308C16.9175 11.7384 16.6566 11.6304 16.3846 11.6304C16.1126 11.6304 15.8517 11.7384 15.6594 11.9308C15.467 12.1231 15.3589 12.384 15.3589 12.656C15.3589 12.928 15.467 13.1889 15.6594 13.3812C15.8517 13.5736 16.1126 13.6817 16.3846 13.6817C16.6566 13.6817 16.9175 13.5736 17.1098 13.3812ZM11.9816 17.4838C12.174 17.2915 12.282 17.0306 12.282 16.7586C12.282 16.4866 12.174 16.2257 11.9816 16.0333C11.7893 15.841 11.5284 15.7329 11.2564 15.7329C10.9844 15.7329 10.7235 15.841 10.5311 16.0333C10.3388 16.2257 10.2307 16.4866 10.2307 16.7586C10.2307 17.0306 10.3388 17.2915 10.5311 17.4838C10.7235 17.6762 10.9844 17.7842 11.2564 17.7842C11.5284 17.7842 11.7893 17.6762 11.9816 17.4838ZM11.9816 13.3812C12.174 13.1889 12.282 12.928 12.282 12.656C12.282 12.384 12.174 12.1231 11.9816 11.9308C11.7893 11.7384 11.5284 11.6304 11.2564 11.6304C10.9844 11.6304 10.7235 11.7384 10.5311 11.9308C10.3388 12.1231 10.2307 12.384 10.2307 12.656C10.2307 12.928 10.3388 13.1889 10.5311 13.3812C10.7235 13.5736 10.9844 13.6817 11.2564 13.6817C11.5284 13.6817 11.7893 13.5736 11.9816 13.3812ZM6.85342 17.4838C7.04576 17.2915 7.15382 17.0306 7.15382 16.7586C7.15382 16.4866 7.04576 16.2257 6.85342 16.0333C6.66107 15.841 6.4002 15.7329 6.12818 15.7329C5.85616 15.7329 5.59529 15.841 5.40294 16.0333C5.2106 16.2257 5.10254 16.4866 5.10254 16.7586C5.10254 17.0306 5.2106 17.2915 5.40294 17.4838C5.59529 17.6762 5.85616 17.7842 6.12818 17.7842C6.4002 17.7842 6.66107 17.6762 6.85342 17.4838ZM6.85342 13.3812C7.04576 13.1889 7.15382 12.928 7.15382 12.656C7.15382 12.384 7.04576 12.1231 6.85342 11.9308C6.66107 11.7384 6.4002 11.6304 6.12818 11.6304C5.85616 11.6304 5.59529 11.7384 5.40294 11.9308C5.2106 12.1231 5.10254 12.384 5.10254 12.656C5.10254 12.928 5.2106 13.1889 5.40294 13.3812C5.59529 13.5736 5.85616 13.6817 6.12818 13.6817C6.4002 13.6817 6.66107 13.5736 6.85342 13.3812Z" fill="#4C4D56"/>
</svg>
