<svg width="27" height="25" viewBox="0 0 27 25" fill="none" xmlns="http://www.w3.org/2000/svg">
<path d="M13.5594 0.663574C15.6079 0.663574 17.5725 1.46109 19.021 2.88067C20.4695 4.30024 21.2832 6.22561 21.2832 8.2332V9.4948H26.4325V12.018H24.9302L23.9557 23.4772C23.9289 23.7924 23.7822 24.0863 23.5448 24.3006C23.3073 24.5149 22.9963 24.6339 22.6735 24.634H4.44533C4.12231 24.6342 3.81104 24.5153 3.57329 24.301C3.33555 24.0867 3.1887 23.7926 3.16188 23.4772L2.1874 12.018H0.686401V9.4948H5.83561V8.2332C5.83561 6.22561 6.64937 4.30024 8.09787 2.88067C9.54636 1.46109 11.5109 0.663574 13.5594 0.663574ZM22.3466 12.018H4.77101L5.62964 22.1108H21.4879L22.3466 12.018ZM14.8467 14.5412V19.5876H12.2721V14.5412H14.8467ZM9.69752 14.5412V19.5876H7.12292V14.5412H9.69752ZM19.9959 14.5412V19.5876H17.4213V14.5412H19.9959ZM13.5594 3.18678C12.2383 3.18678 10.9678 3.6844 10.0106 4.57672C9.05336 5.46904 8.48271 6.68778 8.41666 7.98088L8.41022 8.2332V9.4948H18.7086V8.2332C18.7086 6.93849 18.2009 5.6933 17.2904 4.75519C16.3799 3.81709 15.1363 3.25783 13.8169 3.19309L13.5594 3.18678Z" fill="#4C4D56"/>
</svg>
