<svg width="69" height="52" viewBox="0 0 69 52" fill="none" xmlns="http://www.w3.org/2000/svg">
<path fill-rule="evenodd" clip-rule="evenodd" d="M0.216064 1.93262C0.216064 1.10419 0.887637 0.432617 1.71606 0.432617H39.3649C40.1933 0.432617 40.8649 1.10419 40.8649 1.93262V3.85524H56.478C57.0049 3.85524 57.4931 4.13168 57.7642 4.58349L68.0321 21.6966C68.1719 21.9297 68.2458 22.1965 68.2458 22.4683V43.004C68.2458 43.8325 67.5742 44.504 66.7458 44.504L61.2647 44.504C60.9622 46.1599 60.1631 47.6982 58.9563 48.905C57.3913 50.4701 55.2686 51.3493 53.0554 51.3493C50.8421 51.3493 48.7194 50.4701 47.1544 48.905C45.9476 47.6982 45.1486 46.1599 44.846 44.504H27.0385C26.736 46.1599 25.9369 47.6982 24.7301 48.905C23.1651 50.4701 21.0425 51.3493 18.8292 51.3493C16.6159 51.3493 14.4932 50.4701 12.9282 48.905C11.7214 47.6982 10.9224 46.1599 10.6198 44.504L5.13868 44.504C4.31026 44.504 3.63868 43.8325 3.63868 43.004V29.3136C3.63868 28.4851 4.31026 27.8136 5.13868 27.8136C5.96711 27.8136 6.63868 28.4851 6.63868 29.3136V41.504L10.6198 41.504C10.9224 39.8482 11.7214 38.3099 12.9282 37.1031C14.4932 35.538 16.6159 34.6588 18.8292 34.6588C21.0425 34.6588 23.1651 35.538 24.7301 37.1031C25.9369 38.3099 26.736 39.8482 27.0385 41.504H37.8649V3.43262H1.71606C0.887637 3.43262 0.216064 2.76104 0.216064 1.93262ZM40.8649 6.85524V20.9683H64.0965L55.6287 6.85524H40.8649ZM65.2458 23.9683H40.8649V41.504H44.846C45.1486 39.8482 45.9476 38.3099 47.1544 37.1031C48.7194 35.538 50.8421 34.6588 53.0554 34.6588C55.2686 34.6588 57.3913 35.538 58.9563 37.1031C60.1631 38.3099 60.9622 39.8482 61.2647 41.504L65.2458 41.504V23.9683ZM3.63868 15.6231C3.63868 14.7947 4.31026 14.1231 5.13868 14.1231H18.8292C19.6576 14.1231 20.3292 14.7947 20.3292 15.6231C20.3292 16.4515 19.6576 17.1231 18.8292 17.1231H5.13868C4.31026 17.1231 3.63868 16.4515 3.63868 15.6231ZM18.8292 37.6588C17.4115 37.6588 16.0519 38.222 15.0495 39.2244C14.0471 40.2268 13.4839 41.5864 13.4839 43.004C13.4839 44.4217 14.0471 45.7813 15.0495 46.7837C16.0519 47.7861 17.4115 48.3493 18.8292 48.3493C20.2468 48.3493 21.6064 47.7861 22.6088 46.7837C23.6112 45.7813 24.1744 44.4217 24.1744 43.004C24.1744 41.5864 23.6112 40.2268 22.6088 39.2244C21.6064 38.222 20.2468 37.6588 18.8292 37.6588ZM53.0554 37.6588C51.6377 37.6588 50.2781 38.222 49.2757 39.2244C48.2733 40.2268 47.7101 41.5864 47.7101 43.004C47.7101 44.4217 48.2733 45.7813 49.2757 46.7837C50.2781 47.7861 51.6377 48.3493 53.0554 48.3493C54.473 48.3493 55.8326 47.7861 56.835 46.7837C57.8374 45.7813 58.4006 44.4217 58.4006 43.004C58.4006 41.5864 57.8374 40.2268 56.835 39.2244C55.8326 38.222 54.473 37.6588 53.0554 37.6588Z" fill="#EC722B"/>
</svg>
