<svg xmlns="http://www.w3.org/2000/svg" width="21" height="20" viewBox="0 0 21 20" fill="none">
<path fill-rule="evenodd" clip-rule="evenodd" d="M10.3291 0.00012207C4.61736 0.00012207 0 4.54484 0 10.1673C0 14.6616 2.9585 18.4659 7.06272 19.8124C7.57586 19.9136 7.76382 19.5937 7.76382 19.3245C7.76382 19.0888 7.7469 18.2808 7.7469 17.439C4.87361 18.0451 4.27527 16.227 4.27527 16.227C3.81351 15.0487 3.12933 14.7459 3.12933 14.7459C2.1889 14.123 3.19783 14.123 3.19783 14.123C4.24102 14.1904 4.7884 15.1667 4.7884 15.1667C5.7117 16.7152 7.19952 16.2777 7.79807 16.0083C7.88348 15.3518 8.15728 14.8973 8.44799 14.6449C6.15633 14.4092 3.74522 13.5339 3.74522 9.62853C3.74522 8.51755 4.15539 7.6086 4.80532 6.90169C4.70277 6.64926 4.34356 5.60542 4.90807 4.20833C4.90807 4.20833 5.78021 3.93895 7.74669 5.25196C8.58861 5.02941 9.45687 4.91619 10.3291 4.91524C11.2012 4.91524 12.0902 5.03319 12.9112 5.25196C14.8779 3.93895 15.7501 4.20833 15.7501 4.20833C16.3146 5.60542 15.9551 6.64926 15.8526 6.90169C16.5196 7.6086 16.9129 8.51755 16.9129 9.62853C16.9129 13.5339 14.5018 14.3922 12.193 14.6449C12.5693 14.9646 12.8941 15.5705 12.8941 16.5301C12.8941 17.8935 12.8772 18.9878 12.8772 19.3243C12.8772 19.5937 13.0653 19.9136 13.5783 19.8126C17.6825 18.4657 20.641 14.6616 20.641 10.1673C20.6579 4.54484 16.0236 0.00012207 10.3291 0.00012207Z" fill="white"/>
</svg>