<svg width="51" height="52" viewBox="0 0 51 52" fill="none" xmlns="http://www.w3.org/2000/svg">
<path d="M50.5048 20.8869H48.4545V20.7797H25.5454V31.1068H39.931C37.8323 37.1185 32.1928 41.4339 25.5454 41.4339C17.111 41.4339 10.2726 34.498 10.2726 25.9433C10.2726 17.3885 17.111 10.4526 25.5454 10.4526C29.4386 10.4526 32.9806 11.9423 35.6775 14.3756L42.8774 7.07305C38.3312 2.77568 32.2501 0.125488 25.5454 0.125488C11.4881 0.125488 0.0908203 11.6854 0.0908203 25.9433C0.0908203 40.2011 11.4881 51.7611 25.5454 51.7611C39.6026 51.7611 50.9999 40.2011 50.9999 25.9433C50.9999 24.2122 50.8243 22.5224 50.5048 20.8869Z" fill="#FFC107"/>
<path d="M3.02573 13.9264L11.3888 20.1472C13.6517 14.4647 19.1321 10.4526 25.5454 10.4526C29.4386 10.4526 32.9806 11.9423 35.6775 14.3756L42.8774 7.07305C38.3312 2.77568 32.2501 0.125488 25.5454 0.125488C15.7683 0.125488 7.28937 5.72407 3.02573 13.9264Z" fill="#FF3D00"/>
<path d="M25.5454 51.7611C32.1203 51.7611 38.0945 49.209 42.6114 45.0588L34.7332 38.2971C32.0917 40.3346 28.8639 41.4366 25.5454 41.4339C18.9246 41.4339 13.303 37.1521 11.1852 31.1765L2.88446 37.6632C7.09718 46.0243 15.6525 51.7611 25.5454 51.7611Z" fill="#4CAF50"/>
<path d="M50.5048 20.8869H48.4545V20.7797H25.5454V31.1068H39.931C38.9271 33.968 37.1187 36.4681 34.7294 38.2984L34.7332 38.2971L42.6114 45.0588C42.0539 45.5725 50.9999 38.8522 50.9999 25.9433C50.9999 24.2122 50.8243 22.5224 50.5048 20.8869Z" fill="#1976D2"/>
</svg>
