<svg xmlns="http://www.w3.org/2000/svg" width="21" height="21" viewBox="0 0 21 21" fill="none">
<g clip-path="url(#clip0_25_1058)">
<path d="M10.3286 20.6574C16.0329 20.6574 20.6571 16.0331 20.6571 10.3288C20.6571 4.6245 16.0329 0.000244141 10.3286 0.000244141C4.62426 0.000244141 0 4.6245 0 10.3288C0 16.0331 4.62426 20.6574 10.3286 20.6574Z" fill="white"/>
<path fill-rule="evenodd" clip-rule="evenodd" d="M4.6655 10.2161C7.67398 8.89692 9.68499 8.04425 10.6985 7.62596C13.5622 6.43544 14.1575 6.22629 14.5436 6.21021C14.624 6.21021 14.8171 6.22629 14.9458 6.32282C15.0423 6.40326 15.0745 6.51588 15.0906 6.59632C15.1067 6.67676 15.1228 6.85373 15.1067 6.99852C14.9458 8.62342 14.2862 12.5972 13.9323 14.4151C13.7875 15.1874 13.4979 15.4448 13.2244 15.477C12.6291 15.5252 12.1626 15.0748 11.5834 14.7047C10.6825 14.1095 10.1676 13.7394 9.28279 13.1603C8.26924 12.4846 8.92885 12.1145 9.50802 11.5193C9.65282 11.3584 12.3074 8.96127 12.3556 8.73604C12.3556 8.70386 12.3717 8.60733 12.3074 8.55907C12.243 8.5108 12.1626 8.52689 12.0982 8.54298C12.0017 8.55907 10.5538 9.52436 7.73833 11.4228C7.32004 11.7123 6.95001 11.841 6.61216 11.841C6.24214 11.841 5.53426 11.6319 5.00335 11.4549C4.35983 11.2458 3.84501 11.1332 3.89327 10.7792C3.92545 10.6023 4.18286 10.4092 4.6655 10.2161Z" fill="black"/>
</g>
<defs>
<clipPath id="clip0_25_1058">
<rect width="20.641" height="20.641" fill="white" transform="translate(0 0.000244141)"/>
</clipPath>
</defs>
</svg>