<svg width="18" height="18" viewBox="0 0 18 18" fill="none" xmlns="http://www.w3.org/2000/svg">
<path d="M9.00033 0.887207C13.6028 0.887207 17.3337 4.61804 17.3337 9.22054C17.3337 13.823 13.6028 17.5539 9.00033 17.5539C4.39783 17.5539 0.666992 13.823 0.666992 9.22054C0.666992 4.61804 4.39783 0.887207 9.00033 0.887207ZM9.00033 2.55387C7.23222 2.55387 5.53652 3.25625 4.28628 4.5065C3.03604 5.75674 2.33366 7.45243 2.33366 9.22054C2.33366 10.9887 3.03604 12.6843 4.28628 13.9346C5.53652 15.1848 7.23222 15.8872 9.00033 15.8872C10.7684 15.8872 12.4641 15.1848 13.7144 13.9346C14.9646 12.6843 15.667 10.9887 15.667 9.22054C15.667 7.45243 14.9646 5.75674 13.7144 4.5065C12.4641 3.25625 10.7684 2.55387 9.00033 2.55387ZM9.00033 4.22054C9.20444 4.22057 9.40144 4.2955 9.55397 4.43114C9.7065 4.56677 9.80394 4.75366 9.82783 4.95637L9.83366 5.05387V8.87554L12.0895 11.1314C12.2389 11.2813 12.3257 11.4826 12.3322 11.6942C12.3386 11.9058 12.2643 12.112 12.1243 12.2708C11.9843 12.4296 11.789 12.5291 11.5783 12.5492C11.3675 12.5693 11.157 12.5084 10.9895 12.3789L10.9112 12.3097L8.41116 9.80971C8.28164 9.68008 8.19846 9.51138 8.17449 9.32971L8.16699 9.22054V5.05387C8.16699 4.83286 8.25479 4.6209 8.41107 4.46462C8.56735 4.30834 8.77931 4.22054 9.00033 4.22054Z" fill="#4C4D56"/>
</svg>
