<svg xmlns="http://www.w3.org/2000/svg" width="23" height="16" viewBox="0 0 23 16" fill="none">
<path d="M22.1912 2.46485C21.9304 1.49484 21.1625 0.730686 20.1873 0.471388C18.4198 0.000122336 11.3322 0.00012207 11.3322 0.00012207C11.3322 0.00012207 4.24488 0.000122336 2.47738 0.471388C1.50221 0.730686 0.734313 1.49484 0.473684 2.46485C-1.15649e-06 4.22332 0 7.89228 0 7.89228C0 7.89228 -1.15649e-06 11.5613 0.473684 13.3197C0.734313 14.2899 1.50221 15.0541 2.47738 15.3132C4.24488 15.7844 11.3322 15.7844 11.3322 15.7844C11.3322 15.7844 18.4198 15.7844 20.1873 15.3132C21.1625 15.0541 21.9304 14.2897 22.1912 13.3197C22.6647 11.5613 22.6647 7.89228 22.6647 7.89228C22.6647 7.89228 22.6647 4.22332 22.1912 2.46485ZM9.06587 11.2747V4.5099L14.9542 7.89228L9.06587 11.2747Z" fill="white"/>
</svg>