<?xml version="1.0" encoding="UTF-8"?>
<!--Generator: Apple Native CoreSVG 175.5-->
<!DOCTYPE svg
PUBLIC "-//W3C//DTD SVG 1.1//EN"
       "http://www.w3.org/Graphics/SVG/1.1/DTD/svg11.dtd">
<svg version="1.1" xmlns="http://www.w3.org/2000/svg" xmlns:xlink="http://www.w3.org/1999/xlink" width="208.984" height="208.887">
 <g>
  <rect height="208.887" opacity="0" width="208.984" x="0" y="0"/>
  <path d="M94.6289 208.789L114.355 208.789C121.875 208.789 127.637 204.199 129.395 196.973L133.594 178.711L136.719 177.637L152.637 187.402C158.984 191.406 166.309 190.43 171.68 185.059L185.352 171.484C190.723 166.113 191.699 158.691 187.695 152.441L177.734 136.621L178.906 133.691L197.168 129.395C204.297 127.637 208.984 121.777 208.984 114.355L208.984 95.0195C208.984 87.5977 204.395 81.7383 197.168 79.9805L179.102 75.5859L177.832 72.4609L187.793 56.6406C191.797 50.3906 190.82 43.0664 185.449 37.5977L171.777 23.9258C166.504 18.6523 159.18 17.6758 152.832 21.582L136.914 31.3477L133.594 30.0781L129.395 11.8164C127.637 4.58984 121.875 0 114.355 0L94.6289 0C87.1094 0 81.3477 4.58984 79.5898 11.8164L75.293 30.0781L71.9727 31.3477L56.1523 21.582C49.8047 17.6758 42.3828 18.6523 37.1094 23.9258L23.5352 37.5977C18.1641 43.0664 17.0898 50.3906 21.1914 56.6406L31.0547 72.4609L29.8828 75.5859L11.8164 79.9805C4.58984 81.7383 0 87.5977 0 95.0195L0 114.355C0 121.777 4.6875 127.637 11.8164 129.395L30.0781 133.691L31.1523 136.621L21.2891 152.441C17.1875 158.691 18.2617 166.113 23.6328 171.484L37.207 185.059C42.5781 190.43 50 191.406 56.3477 187.402L72.168 177.637L75.293 178.711L79.5898 196.973C81.3477 204.199 87.1094 208.789 94.6289 208.789ZM96.1914 193.555C94.5312 193.555 93.6523 192.871 93.3594 191.309L87.5 167.09C81.543 165.625 75.9766 163.281 71.7773 160.645L50.4883 173.73C49.3164 174.609 48.0469 174.414 46.875 173.242L35.3516 161.719C34.2773 160.645 34.1797 159.473 34.9609 158.105L48.0469 137.012C45.8008 132.91 43.2617 127.344 41.6992 121.387L17.4805 115.625C15.918 115.332 15.2344 114.453 15.2344 112.793L15.2344 96.4844C15.2344 94.7266 15.8203 93.9453 17.4805 93.6523L41.6016 87.793C43.1641 81.4453 46.0938 75.6836 47.8516 72.0703L34.8633 50.9766C33.9844 49.5117 34.082 48.3398 35.1562 47.168L46.7773 35.8398C47.9492 34.668 49.0234 34.4727 50.4883 35.3516L71.582 48.1445C75.7812 45.8008 81.7383 43.3594 87.5977 41.6992L93.3594 17.4805C93.6523 15.918 94.5312 15.2344 96.1914 15.2344L112.793 15.2344C114.453 15.2344 115.332 15.918 115.527 17.4805L121.484 41.8945C127.539 43.457 132.812 45.8984 137.207 48.2422L158.398 35.3516C159.961 34.4727 160.938 34.668 162.207 35.8398L173.73 47.168C174.902 48.3398 174.902 49.5117 174.023 50.9766L161.035 72.0703C162.891 75.6836 165.723 81.4453 167.285 87.793L191.504 93.6523C193.066 93.9453 193.75 94.7266 193.75 96.4844L193.75 112.793C193.75 114.453 192.969 115.332 191.504 115.625L167.188 121.387C165.625 127.344 163.184 132.91 160.84 137.012L173.926 158.105C174.707 159.473 174.707 160.645 173.535 161.719L162.109 173.242C160.84 174.414 159.668 174.609 158.398 173.73L137.109 160.645C132.91 163.281 127.441 165.625 121.484 167.09L115.527 191.309C115.332 192.871 114.453 193.555 112.793 193.555ZM104.492 141.699C124.902 141.699 141.699 124.902 141.699 104.395C141.699 84.082 124.902 67.2852 104.492 67.2852C84.082 67.2852 67.1875 84.082 67.1875 104.395C67.1875 124.805 83.9844 141.699 104.492 141.699ZM104.492 126.562C92.3828 126.562 82.4219 116.602 82.4219 104.395C82.4219 92.3828 92.3828 82.4219 104.492 82.4219C116.406 82.4219 126.367 92.3828 126.367 104.395C126.367 116.504 116.406 126.562 104.492 126.562Z" fill="#000000" fill-opacity="0.85"/>
 </g>
</svg>
