<svg width="20" height="20" viewBox="0 0 26 20"  xmlns="http://www.w3.org/2000/svg">
    <path
        d="M11.5271 0.532945C11.1788 0.1917 10.7065 0 10.214 0C9.72159 0 9.2493 0.1917 8.90103 0.532945L0.543755 8.72407C0.195589 9.06542 0 9.52832 0 10.011C0 10.4937 0.195589 10.9566 0.543755 11.2979L8.90103 19.489C9.25129 19.8206 9.72042 20.0041 10.2074 19.9999C10.6943 19.9958 11.1601 19.8043 11.5044 19.4669C11.8488 19.1294 12.0441 18.6728 12.0483 18.1956C12.0526 17.7183 11.8654 17.2585 11.5271 16.9152L6.4997 11.8312H24.1428C24.6354 11.8312 25.1078 11.6395 25.456 11.2981C25.8043 10.9567 26 10.4937 26 10.011C26 9.52823 25.8043 9.06524 25.456 8.72388C25.1078 8.38251 24.6354 8.19074 24.1428 8.19074H6.4997L11.5271 3.10678C11.8752 2.76543 12.0708 2.30253 12.0708 1.81986C12.0708 1.3372 11.8752 0.874292 11.5271 0.532945Z"
         />
</svg>
