<svg width="30" height="20" viewBox="0 0 30 20" fill="none" xmlns="http://www.w3.org/2000/svg">
    <path
        d="M1.66667 20H28.3333C29.25 20 30 19.25 30 18.3333C30 17.4167 29.25 16.6667 28.3333 16.6667H1.66667C0.75 16.6667 0 17.4167 0 18.3333C0 19.25 0.75 20 1.66667 20ZM1.66667 11.6667H28.3333C29.25 11.6667 30 10.9167 30 10C30 9.08333 29.25 8.33333 28.3333 8.33333H1.66667C0.75 8.33333 0 9.08333 0 10C0 10.9167 0.75 11.6667 1.66667 11.6667ZM0 1.66667C0 2.58333 0.75 3.33333 1.66667 3.33333H28.3333C29.25 3.33333 30 2.58333 30 1.66667C30 0.75 29.25 0 28.3333 0H1.66667C0.75 0 0 0.75 0 1.66667Z"
        fill="#4C4D56" />
</svg>
