<svg width="18" height="18" viewBox="0 0 18 18" fill="none" xmlns="http://www.w3.org/2000/svg">
<path d="M1.21315 1.23034L1.2131 1.23039C0.916548 1.52733 0.75 1.92996 0.75 2.34972C0.75 2.76948 0.916548 3.17211 1.2131 3.46905L1.21312 3.46907L6.75486 9.01638L1.21312 14.5637L1.2131 14.5637L1.21008 14.5668C0.921938 14.8654 0.76254 15.2654 0.766143 15.6804C0.769746 16.0955 0.936063 16.4926 1.22935 16.7862L1.40521 16.6105L1.22935 16.7862C1.52264 17.0798 1.91945 17.2463 2.33433 17.2499C2.7492 17.2535 3.14884 17.0939 3.4472 16.8055L3.44722 16.8055L3.45029 16.8024L8.99167 11.2554L14.5331 16.8024L14.533 16.8024L14.5362 16.8055C14.8345 17.0939 15.2341 17.2535 15.649 17.2499C16.0639 17.2463 16.4607 17.0798 16.754 16.7862C17.0473 16.4926 17.2136 16.0955 17.2172 15.6804C17.2208 15.2654 17.0614 14.8654 16.7733 14.5668L16.7733 14.5668L16.7702 14.5637L11.2285 9.01638L16.7688 3.47054C16.9191 3.32479 17.039 3.15064 17.1216 2.95818C17.2045 2.76502 17.2481 2.55729 17.2499 2.34709C17.2518 2.13689 17.2118 1.92843 17.1322 1.73386C17.0527 1.53929 16.9353 1.36251 16.7867 1.21384C16.6382 1.06516 16.4616 0.94757 16.2671 0.867938C16.0727 0.788307 15.8643 0.748232 15.6543 0.75006C15.4442 0.751887 15.2365 0.79558 15.0435 0.878582C14.8512 0.961284 14.6772 1.08136 14.5316 1.23183L8.99167 6.77732L3.45029 1.23036L3.45027 1.23034C3.15362 0.93348 2.75128 0.766669 2.33171 0.766669C1.91214 0.766669 1.5098 0.93348 1.21315 1.23034Z" fill="#4C4D56" stroke="#4C4D56" stroke-width="0.5"/>
</svg>
