<svg width="18" height="16" viewBox="0 0 18 16" fill="none" xmlns="http://www.w3.org/2000/svg">
<path d="M16.75 7.5C16.5876 7.50073 16.4295 7.44802 16.3 7.35L8.75 1.69L1.2 7.35C1.04087 7.46935 0.84085 7.52059 0.643937 7.49246C0.447024 7.46433 0.269351 7.35913 0.150003 7.2C0.0306558 7.04087 -0.0205895 6.84085 0.00754093 6.64393C0.0356714 6.44702 0.140873 6.26935 0.300003 6.15L8.3 0.15C8.42982 0.0526335 8.58773 0 8.75 0C8.91228 0 9.07018 0.0526335 9.2 0.15L17.2 6.15C17.3452 6.26795 17.4411 6.43591 17.4689 6.62092C17.4966 6.80593 17.4542 6.99464 17.35 7.15C17.2863 7.25298 17.1982 7.33875 17.0936 7.39977C16.989 7.4608 16.871 7.49521 16.75 7.5Z" fill="#EC722B"/>
<path d="M14.75 15.5H2.75C2.5519 15.4974 2.36263 15.4176 2.22254 15.2775C2.08244 15.1374 2.00259 14.9481 2 14.75V5.25C2 5.05109 2.07902 4.86032 2.21967 4.71967C2.36033 4.57902 2.55109 4.5 2.75 4.5C2.94892 4.5 3.13968 4.57902 3.28033 4.71967C3.42099 4.86032 3.5 5.05109 3.5 5.25V14H14V5.25C14 5.05109 14.079 4.86032 14.2197 4.71967C14.3603 4.57902 14.5511 4.5 14.75 4.5C14.9489 4.5 15.1397 4.57902 15.2803 4.71967C15.421 4.86032 15.5 5.05109 15.5 5.25V14.75C15.4974 14.9481 15.4176 15.1374 15.2775 15.2775C15.1374 15.4176 14.9481 15.4974 14.75 15.5Z" fill="#EC722B"/>
<path d="M10.75 15.5C10.5519 15.4974 10.3626 15.4176 10.2225 15.2775C10.0824 15.1374 10.0026 14.9481 10 14.75V8.5H7.5V14.75C7.5 14.9489 7.42099 15.1397 7.28033 15.2803C7.13968 15.421 6.94892 15.5 6.75 15.5C6.55109 15.5 6.36033 15.421 6.21967 15.2803C6.07902 15.1397 6 14.9489 6 14.75V7.75C6.00259 7.55189 6.08244 7.36263 6.22254 7.22253C6.36263 7.08244 6.5519 7.00259 6.75 7H10.75C10.9481 7.00259 11.1374 7.08244 11.2775 7.22253C11.4176 7.36263 11.4974 7.55189 11.5 7.75V14.75C11.4974 14.9481 11.4176 15.1374 11.2775 15.2775C11.1374 15.4176 10.9481 15.4974 10.75 15.5Z" fill="#EC722B"/>
</svg>
